<svg width="671" height="612" viewBox="0 0 671 612" fill="none" xmlns="http://www.w3.org/2000/svg">
<path d="M609.87 506.871C610.126 505.161 616.111 463.831 604.124 449.569C602.931 448.066 601.42 446.847 599.699 445.998C597.978 445.15 596.09 444.693 594.172 444.662C569.958 444.097 566.658 463.471 566.624 463.728L569.479 464.173C569.582 463.472 572.455 447.073 594.103 447.551C595.612 447.573 597.096 447.931 598.448 448.599C599.8 449.268 600.986 450.23 601.918 451.416C613.067 464.703 607.048 506.016 607.048 506.444L609.87 506.871Z" fill="black"/>
<path d="M611.323 504.99L614.213 504.888C614.213 504.511 613.255 466.84 631.809 459.06C650.003 451.45 658.194 467.114 658.519 467.781L661.101 466.481C661.016 466.293 651.405 447.671 630.697 456.409C610.314 464.942 611.272 503.349 611.323 504.99Z" fill="black"/>
<path d="M611.238 507.949C611.238 507.35 611.426 447.774 623.037 430.349C634.186 413.608 652.107 421.491 652.944 421.799L654.124 419.165C653.919 419.08 633.16 409.914 620.625 428.707C608.536 446.85 608.365 505.418 608.365 507.914L611.238 507.949Z" fill="black"/>
<path d="M590.7 446.098C590.7 446.098 601.268 449.997 598.122 459.179C594.975 468.362 561.579 483.513 561.579 483.513C561.579 483.513 547.574 470.688 560.433 449.826C573.293 428.964 590.41 439.514 590.7 446.098Z" fill="black"/>
<path d="M623.55 427.202C623.55 427.202 616.06 426.399 616.71 421.833C617.359 417.267 645.882 405.502 662.726 424.518C662.726 424.518 651.935 443.054 636.34 443.328C620.745 443.601 623.55 427.202 623.55 427.202Z" fill="black"/>
<path d="M631.33 457.76C631.33 457.76 626.2 453.588 631.74 451.553C637.281 449.518 664.743 450.082 665.017 477.203C665.017 477.203 633.091 482.521 629.107 472.175C625.123 461.83 631.33 457.76 631.33 457.76Z" fill="black"/>
<path opacity="0.2" d="M590.7 446.098C590.7 446.098 601.268 449.997 598.122 459.179C594.975 468.362 561.579 483.513 561.579 483.513C561.579 483.513 547.574 470.688 560.433 449.826C573.293 428.964 590.41 439.514 590.7 446.098Z" fill="black"/>
<path opacity="0.2" d="M623.55 427.202C623.55 427.202 616.06 426.399 616.71 421.833C617.359 417.267 645.882 405.502 662.726 424.518C662.726 424.518 651.935 443.054 636.34 443.328C620.745 443.601 623.55 427.202 623.55 427.202Z" fill="black"/>
<path opacity="0.2" d="M631.33 457.76C631.33 457.76 626.2 453.588 631.74 451.553C637.281 449.518 664.743 450.082 665.017 477.203C665.017 477.203 633.091 482.521 629.107 472.175C625.123 461.83 631.33 457.76 631.33 457.76Z" fill="black"/>
<path d="M585.023 562.19H634.579L639.914 507.948H579.688L585.023 562.19Z" fill="black"/>
<path opacity="0.5" d="M585.023 562.19H634.579L639.914 507.948H579.688L585.023 562.19Z" fill="white"/>
<path d="M577.037 513.917H642.565V501.947H577.037V513.917Z" fill="black"/>
<path opacity="0.2" d="M577.037 513.917H642.565V501.947H577.037V513.917Z" fill="white"/>
<path d="M528.935 523.304L479.67 518.465V449.21H460.142V518.431L410.74 523.304C408.371 523.538 406.173 524.644 404.574 526.407C402.975 528.171 402.089 530.466 402.087 532.846V540.251H537.656V532.846C537.657 530.454 536.763 528.148 535.149 526.382C533.535 524.616 531.318 523.518 528.935 523.304Z" fill="#263238"/>
<path opacity="0.2" d="M528.935 523.304L479.67 518.465V449.21H460.142V518.431L410.74 523.304C408.371 523.538 406.173 524.644 404.574 526.407C402.975 528.171 402.089 530.466 402.087 532.846V540.251H537.656V532.846C537.657 530.454 536.763 528.148 535.149 526.382C533.535 524.616 531.318 523.518 528.935 523.304Z" fill="white"/>
<path d="M407.235 562.207C414.289 562.207 420.008 556.488 420.008 549.433C420.008 542.378 414.289 536.659 407.235 536.659C400.18 536.659 394.461 542.378 394.461 549.433C394.461 556.488 400.18 562.207 407.235 562.207Z" fill="#263238"/>
<path d="M532.389 562.207C539.444 562.207 545.163 556.488 545.163 549.433C545.163 542.378 539.444 536.659 532.389 536.659C525.335 536.659 519.616 542.378 519.616 549.433C519.616 556.488 525.335 562.207 532.389 562.207Z" fill="#263238"/>
<path d="M456.79 402.425H483.039V457.025C483.039 458.898 482.295 460.694 480.97 462.019C479.646 463.343 477.85 464.087 475.976 464.087H463.853C461.98 464.087 460.183 463.343 458.859 462.019C457.534 460.694 456.79 458.898 456.79 457.025V402.425Z" fill="#263238"/>
<path opacity="0.3" d="M456.79 402.425H483.039V457.025C483.039 458.898 482.295 460.694 480.97 462.019C479.646 463.343 477.85 464.087 475.976 464.087H463.853C461.98 464.087 460.183 463.343 458.859 462.019C457.534 460.694 456.79 458.898 456.79 457.025V402.425Z" fill="white"/>
<path d="M516.589 294.198C516.589 294.198 520.317 386.539 494.598 402.424H523.959C523.959 402.424 546.702 370.977 540.272 294.198H516.589Z" fill="#263238"/>
<path opacity="0.3" d="M516.589 294.198C516.589 294.198 520.317 386.539 494.598 402.424H523.959C523.959 402.424 546.702 370.977 540.272 294.198H516.589Z" fill="white"/>
<path d="M533.945 409.504H402.412V398.064C402.412 395.796 403.313 393.622 404.916 392.018C406.52 390.415 408.695 389.514 410.962 389.514H525.395C527.663 389.514 529.838 390.415 531.441 392.018C533.045 393.622 533.945 395.796 533.945 398.064V409.504Z" fill="#263238"/>
<path d="M400.36 409.504H535.98C537.879 409.504 539.417 407.965 539.417 406.067V402.955C539.417 401.056 537.879 399.518 535.98 399.518H400.36C398.462 399.518 396.923 401.056 396.923 402.955V406.067C396.923 407.965 398.462 409.504 400.36 409.504Z" fill="#263238"/>
<path opacity="0.6" d="M400.36 409.504H535.98C537.879 409.504 539.417 407.965 539.417 406.067V402.955C539.417 401.056 537.879 399.518 535.98 399.518H400.36C398.462 399.518 396.923 401.056 396.923 402.955V406.067C396.923 407.965 398.462 409.504 400.36 409.504Z" fill="white"/>
<path d="M547.472 244.694H500.447C486.677 244.694 475.515 255.856 475.515 269.626V288.025C475.515 301.795 486.677 312.957 500.447 312.957H547.472C561.241 312.957 572.403 301.795 572.403 288.025V269.626C572.403 255.856 561.241 244.694 547.472 244.694Z" fill="#263238"/>
<path d="M357.816 169.249L348.428 144.505C348.428 144.505 352.463 140.777 349.693 136.998C346.923 133.219 329.618 122.6 326.471 124.464C323.325 126.328 316.297 133.373 320.093 137.289C323.889 141.205 340.613 147.72 340.613 147.72L348.924 180.21L357.816 169.249Z" fill="#E4897B"/>
<path d="M423.36 216.291C423.36 216.291 380.61 207.519 376.044 205.415C371.478 203.312 354.31 152.987 354.31 152.987L341.126 159.143C341.126 159.143 351.728 209.656 362.569 221.66C373.411 233.665 419.683 243.89 419.683 243.89L423.36 216.291Z" fill="black"/>
<path opacity="0.2" d="M419.581 243.839L418.794 243.651C416.468 243.121 409.167 241.411 400.497 238.863C386.424 234.776 368.674 228.603 362.484 221.678C351.659 209.708 341.04 159.143 341.04 159.143L354.207 152.987C354.207 152.987 371.393 203.329 376.044 205.415C380.695 207.502 423.36 216.291 423.36 216.291L419.581 243.839Z" fill="black"/>
<path d="M354.43 151.995L357.149 157.245L340.22 163.076L340.869 156.663L354.43 151.995Z" fill="black"/>
<path opacity="0.2" d="M419.906 243.138C417.546 242.796 410.141 241.65 401.284 239.718C406.328 230.997 421.103 226.517 421.103 226.517L419.906 243.138Z" fill="black"/>
<path d="M483.552 181.441C483.552 181.441 486.066 205.09 477.31 210.904C468.555 216.718 425.446 209.913 420.555 200.388C415.665 190.863 434.064 165.042 434.064 165.042L483.552 181.441Z" fill="#263238"/>
<path d="M309.149 492.627L320.401 495.346L326.095 479.819L331.259 465.694L318.451 460.24L313.527 477.374L309.149 492.627Z" fill="#E4897B"/>
<path opacity="0.2" d="M313.526 477.374L326.095 479.819L331.259 465.694L318.451 460.24L313.526 477.374Z" fill="black"/>
<path d="M314.655 469.183L330.25 474.98C330.25 474.98 371.855 370.96 380.405 370.67C388.955 370.379 476.011 410.325 497.83 388.129C519.65 365.933 488.1 312.41 488.1 312.41C488.1 312.41 435.621 304.92 431.67 316.77C430.698 320.264 429.956 323.817 429.447 327.407C428.849 331.032 428.439 334.076 428.439 334.076C426.814 333.665 374.129 320.071 353.37 334.076C332.251 348.32 314.655 469.183 314.655 469.183Z" fill="black"/>
<path opacity="0.6" d="M314.655 469.183L330.25 474.98C330.25 474.98 371.855 370.96 380.405 370.67C388.955 370.379 476.011 410.325 497.83 388.129C519.65 365.933 488.1 312.41 488.1 312.41C488.1 312.41 435.621 304.92 431.67 316.77C430.698 320.264 429.956 323.817 429.447 327.407C428.849 331.032 428.439 334.076 428.439 334.076C426.814 333.665 374.129 320.071 353.37 334.076C332.251 348.32 314.655 469.183 314.655 469.183Z" fill="white"/>
<path d="M404.362 537.001L415.562 534.146L413.408 518.055L411.407 503.314L397.556 504.563L401.147 521.748L404.362 537.001Z" fill="#E4897B"/>
<path opacity="0.2" d="M401.232 522.09L413.476 518.362L411.441 503.468L397.573 504.648L401.232 522.09Z" fill="black"/>
<path d="M336.697 469.2L313.971 461.488L312.996 470.79L330.233 476.878L336.697 469.2Z" fill="black"/>
<path d="M460.142 393.396C460.142 393.396 456.585 393.481 401.54 390.916C401.54 390.916 409.765 459.727 414.263 511.249L397.795 514.053C397.795 514.053 358.465 403.741 358.893 386.214C359.32 368.686 379.413 363.556 379.413 363.556C379.413 363.556 418.623 386.214 460.142 393.396Z" fill="black"/>
<path opacity="0.6" d="M460.142 393.396C460.142 393.396 456.585 393.481 401.54 390.916C401.54 390.916 409.765 459.727 414.263 511.249L397.795 514.053C397.795 514.053 358.465 403.741 358.893 386.214C359.32 368.686 379.413 363.556 379.413 363.556C379.413 363.556 418.623 386.214 460.142 393.396Z" fill="white"/>
<path opacity="0.1" d="M460.142 393.396C460.142 393.396 456.585 393.481 401.54 390.916C401.54 390.916 409.765 459.727 414.263 511.249L397.795 514.053C397.795 514.053 358.465 403.741 358.893 386.214C359.32 368.686 379.413 363.556 379.413 363.556C379.413 363.556 418.623 386.214 460.142 393.396Z" fill="black"/>
<path d="M416.657 506.256L394.033 508.838L398.411 517.696L416.725 515.353L416.657 506.256Z" fill="black"/>
<path opacity="0.1" d="M428.438 334.076L459.133 340.471C459.133 340.471 442.17 331.1 429.447 327.407C428.849 331.032 428.438 334.076 428.438 334.076Z" fill="black"/>
<path d="M486.835 304.253L488.1 312.41L431.67 316.771L430.183 307.109L486.835 304.253Z" fill="#263238"/>
<path opacity="0.2" d="M486.835 304.253L488.1 312.41L431.67 316.771L430.183 307.109L486.835 304.253Z" fill="black"/>
<path d="M469.037 317.919L471.827 317.633L470.366 303.429L467.577 303.716L469.037 317.919Z" fill="black"/>
<path d="M443.968 316.501L456.323 315.706L455.72 306.338L443.365 307.132L443.968 316.501Z" fill="white"/>
<path d="M434.414 319.412L437.204 319.125L435.744 304.921L432.954 305.208L434.414 319.412Z" fill="black"/>
<path opacity="0.6" d="M469.037 317.919L471.827 317.633L470.366 303.429L467.577 303.716L469.037 317.919Z" fill="white"/>
<path opacity="0.6" d="M434.414 319.412L437.204 319.125L435.744 304.921L432.954 305.208L434.414 319.412Z" fill="white"/>
<path d="M422.334 215.521C432.903 218.441 443.872 219.648 454.824 219.095C472.95 218.172 494.53 226.91 494.53 226.91L486.767 304.202L430.097 307.058C430.097 307.058 411.133 242.574 422.334 215.521Z" fill="black"/>
<path d="M431.448 171.865C431.448 171.865 434.629 134.348 465.99 147.925C505.32 165.025 474.061 210.75 454.824 201.38C435.586 192.009 431.448 171.865 431.448 171.865Z" fill="#263238"/>
<path opacity="0.2" d="M440.238 221.199L441.144 242.403L448.172 232.433C448.172 232.433 445.658 255.877 447.129 268.651C447.129 268.651 448.48 245.754 451.66 232.433L459.133 242.403L469.855 221.335C469.855 221.335 452.498 215.094 440.238 221.199Z" fill="black"/>
<path d="M449.95 225.2L466.178 220.617C456.175 213.777 461.219 198.387 461.219 198.387L445.145 204.03C445.885 206.264 446.456 208.551 446.855 210.87C448.565 220.891 444.017 221.694 444.017 221.694L449.95 225.2Z" fill="#E4897B"/>
<path opacity="0.2" d="M445.145 203.945C445.884 206.179 446.456 208.465 446.855 210.785C454.55 207.69 461.202 198.268 461.202 198.268L445.145 203.945Z" fill="black"/>
<path d="M455.645 155.859C441.4 152.713 435.125 159.279 430.85 173.746C425.497 191.787 426.677 205.706 445.333 205.74C470.676 205.774 479.277 161.092 455.645 155.859Z" fill="#E4897B"/>
<path d="M440.22 174.994C438.617 176.868 436.791 178.539 434.783 179.97C435.07 180.655 435.542 181.247 436.146 181.679C436.75 182.11 437.462 182.366 438.203 182.416L440.22 174.994Z" fill="#DE5753"/>
<path d="M449.198 175.747C448.907 176.91 449.301 178.021 450.087 178.209C450.874 178.397 451.712 177.611 452.002 176.499C452.293 175.388 451.9 174.242 451.113 174.037C450.327 173.832 449.489 174.584 449.198 175.747Z" fill="#263238"/>
<path d="M451.421 174.122L449.147 172.515C449.147 172.515 449.882 174.96 451.421 174.122Z" fill="#263238"/>
<path d="M434.8 171.951C434.509 173.114 434.902 174.225 435.689 174.413C436.476 174.601 437.399 173.815 437.604 172.703C437.809 171.592 437.502 170.446 436.715 170.241C435.928 170.036 435.09 170.788 434.8 171.951Z" fill="#263238"/>
<path d="M437.023 170.326L434.68 168.77C434.68 168.77 435.484 171.147 437.023 170.326Z" fill="#263238"/>
<path d="M457.218 170.087C457.103 170.089 456.99 170.06 456.891 170.002C456.791 169.945 456.709 169.862 456.654 169.762C456.09 168.882 455.337 168.14 454.449 167.59C453.562 167.039 452.562 166.695 451.524 166.581C451.36 166.56 451.211 166.477 451.107 166.35C451.002 166.223 450.949 166.062 450.959 165.897C450.977 165.732 451.058 165.581 451.186 165.475C451.314 165.37 451.478 165.319 451.643 165.333C452.904 165.455 454.118 165.867 455.193 166.538C456.267 167.208 457.171 168.119 457.833 169.198C457.872 169.27 457.895 169.35 457.902 169.432C457.908 169.514 457.899 169.596 457.873 169.674C457.848 169.752 457.807 169.824 457.753 169.886C457.699 169.949 457.634 169.999 457.56 170.035C457.451 170.078 457.334 170.096 457.218 170.087Z" fill="#263238"/>
<path d="M441.298 163.64C441.182 163.638 441.069 163.602 440.973 163.538C440.132 163.134 439.212 162.925 438.28 162.925C437.347 162.925 436.427 163.134 435.586 163.538C435.512 163.568 435.433 163.583 435.353 163.582C435.273 163.581 435.194 163.564 435.121 163.533C435.048 163.501 434.981 163.454 434.926 163.397C434.871 163.339 434.828 163.27 434.8 163.196C434.769 163.12 434.754 163.04 434.754 162.959C434.755 162.877 434.772 162.797 434.804 162.722C434.835 162.648 434.882 162.58 434.94 162.523C434.998 162.467 435.066 162.422 435.142 162.392C436.163 161.916 437.28 161.682 438.407 161.705C439.533 161.729 440.639 162.011 441.64 162.529C441.709 162.572 441.768 162.629 441.815 162.695C441.862 162.762 441.895 162.837 441.912 162.917C441.93 162.996 441.931 163.079 441.917 163.159C441.902 163.239 441.872 163.315 441.828 163.384C441.767 163.466 441.687 163.533 441.594 163.577C441.502 163.622 441.4 163.644 441.298 163.64Z" fill="#263238"/>
<path d="M465.888 183.288C465.888 183.288 461.818 170.121 464.827 161.314C464.827 161.314 439.177 143.547 431.448 171.865C431.448 171.865 434.304 145.839 458.911 150.695C483.518 155.552 475.464 191.308 460.467 199.174C460.467 199.174 468.384 191.513 465.888 183.288Z" fill="#263238"/>
<path d="M462.895 185.87C463.396 184.252 464.517 182.899 466.014 182.107C467.512 181.315 469.262 181.15 470.881 181.646C475.19 183.1 475.275 192.625 463.835 192.368C462.177 192.248 461.63 190.521 462.895 185.87Z" fill="#E4897B"/>
<path d="M435.62 187.819C436.001 189.566 436.253 191.337 436.373 193.12H437.296C441.554 193.48 443.64 192.231 444.666 190.761C445.157 190.03 445.462 189.191 445.556 188.315C445.628 187.822 445.628 187.321 445.556 186.828C442.811 187.773 439.895 188.117 437.006 187.837C436.185 187.888 435.62 187.819 435.62 187.819Z" fill="#263238"/>
<path d="M437.074 187.922L437.33 189.478C441.332 189.803 444.17 189.478 445.556 188.401C445.628 187.908 445.628 187.406 445.556 186.913C442.832 187.849 439.941 188.193 437.074 187.922Z" fill="white"/>
<path d="M437.296 193.206C441.554 193.565 443.64 192.317 444.666 190.846C443.052 190.741 441.431 190.92 439.878 191.376C438.846 191.699 437.943 192.339 437.296 193.206Z" fill="#DE5753"/>
<path d="M455.696 157.005C455.696 157.005 456.243 181.681 471.086 184.656C485.929 187.631 469.718 152.918 469.718 152.918C469.718 152.918 447.659 138.52 432.953 148.678C418.247 158.835 431.482 171.865 431.482 171.865C431.482 171.865 434.543 153.534 455.696 157.005Z" fill="#263238"/>
<path d="M461.356 179.594C461.256 179.593 461.159 179.557 461.082 179.492C450.549 171.215 455.747 155.381 455.799 155.227C455.837 155.12 455.916 155.032 456.018 154.981C456.119 154.93 456.237 154.92 456.346 154.953C456.452 154.992 456.539 155.071 456.587 155.174C456.635 155.276 456.641 155.394 456.602 155.501C456.602 155.654 451.558 170.891 461.613 178.825C461.653 178.863 461.686 178.91 461.708 178.961C461.731 179.013 461.742 179.068 461.742 179.124C461.742 179.18 461.731 179.236 461.708 179.287C461.686 179.339 461.653 179.385 461.613 179.423C461.584 179.468 461.547 179.507 461.503 179.536C461.458 179.566 461.408 179.586 461.356 179.594Z" fill="#263238"/>
<path d="M475.378 189.718C473.497 194.745 468.658 197.567 464.571 196.045C460.484 194.523 458.705 189.205 460.586 184.177C462.467 179.15 467.307 176.328 471.394 177.867C475.481 179.406 477.259 184.707 475.378 189.718Z" fill="black"/>
<path opacity="0.4" d="M475.378 189.718C473.497 194.745 468.658 197.567 464.571 196.045C460.484 194.523 458.705 189.205 460.586 184.177C462.467 179.15 467.307 176.328 471.394 177.867C475.481 179.406 477.259 184.707 475.378 189.718Z" fill="black"/>
<path d="M470.59 181.493C470.59 181.493 476.729 154.013 462.963 146.814C464.531 147.019 466.085 147.322 467.615 147.72C469.325 148.233 480.388 159.382 474.831 184.075L470.59 181.493Z" fill="black"/>
<path opacity="0.2" d="M470.59 181.493C470.59 181.493 476.729 154.013 462.963 146.814C464.531 147.019 466.085 147.322 467.615 147.72C469.325 148.233 480.388 159.382 474.831 184.075L470.59 181.493Z" fill="black"/>
<path d="M444.94 197.224L443.914 197.07L444.188 195.36C451.74 196.522 459.456 194.886 465.887 190.76L466.896 192.129C460.429 196.414 452.634 198.223 444.94 197.224Z" fill="black"/>
<g opacity="0.2">
<path d="M444.94 197.224L443.914 197.07L444.188 195.36C451.74 196.522 459.456 194.886 465.887 190.76L466.896 192.129C460.429 196.414 452.634 198.223 444.94 197.224Z" fill="black"/>
</g>
<path d="M474.797 189.034C473.565 192.351 470.351 194.164 467.666 193.206C464.981 192.248 463.784 188.692 465.033 185.374C466.281 182.057 469.479 180.244 472.163 181.202C474.848 182.159 476.045 185.716 474.797 189.034Z" fill="black"/>
<path d="M443.333 197.84L441.947 197.652C441.706 197.62 441.472 197.541 441.261 197.419C441.05 197.297 440.865 197.134 440.718 196.94C440.57 196.746 440.462 196.525 440.4 196.289C440.338 196.053 440.323 195.807 440.357 195.566C440.387 195.322 440.464 195.087 440.585 194.874C440.707 194.661 440.869 194.474 441.063 194.325C441.258 194.175 441.48 194.066 441.717 194.003C441.953 193.94 442.201 193.925 442.443 193.958L443.811 194.146C444.299 194.215 444.741 194.471 445.041 194.861C445.342 195.251 445.477 195.744 445.419 196.233C445.351 196.72 445.094 197.162 444.704 197.462C444.314 197.763 443.821 197.898 443.333 197.84Z" fill="black"/>
<path opacity="0.4" d="M443.333 197.84L441.947 197.652C441.706 197.62 441.472 197.541 441.261 197.419C441.05 197.297 440.865 197.134 440.718 196.94C440.57 196.746 440.462 196.525 440.4 196.289C440.338 196.053 440.323 195.807 440.357 195.566C440.387 195.322 440.464 195.087 440.585 194.874C440.707 194.661 440.869 194.474 441.063 194.325C441.258 194.175 441.48 194.066 441.717 194.003C441.953 193.94 442.201 193.925 442.443 193.958L443.811 194.146C444.299 194.215 444.741 194.471 445.041 194.861C445.342 195.251 445.477 195.744 445.419 196.233C445.351 196.72 445.094 197.162 444.704 197.462C444.314 197.763 443.821 197.898 443.333 197.84Z" fill="black"/>
<path d="M461.818 214.684L451.66 224.653L455.73 236.896L469.855 221.335L461.818 214.684Z" fill="black"/>
<path d="M447.129 216.77L448.77 224.448L443.521 235.306L440.238 221.199L447.129 216.77Z" fill="black"/>
<path d="M459.646 223.336L465.545 201.739C465.545 201.739 462.69 196.369 463.305 195.241C463.921 194.112 466.999 179.611 469.188 178.038C471.377 176.465 480.388 179.15 481.295 180.62C482.201 182.091 472.659 201.739 472.659 201.739L469.239 225.149L459.646 223.336Z" fill="#E4897B"/>
<path d="M494.53 226.91C510.775 243.531 478.234 281.186 459.578 279.578C440.921 277.971 460.056 209.708 460.056 209.708L472.026 211.674C472.026 211.674 467.837 241.223 469.154 243.531C470.47 245.84 489.143 221.387 494.53 226.91Z" fill="black"/>
<path opacity="0.2" d="M494.53 226.91C510.775 243.531 478.234 281.186 459.578 279.578C440.921 277.971 460.056 209.708 460.056 209.708L472.026 211.674C472.026 211.674 467.837 241.223 469.154 243.531C470.47 245.84 489.143 221.387 494.53 226.91Z" fill="black"/>
<path d="M459.133 207.57L457.372 213.213L474.01 214.683V209.759L459.133 207.57Z" fill="black"/>
<path opacity="0.6" d="M433.911 252.218H427.173C426.427 252.218 425.822 252.823 425.822 253.569V266.291C425.822 267.037 426.427 267.642 427.173 267.642H433.911C434.657 267.642 435.261 267.037 435.261 266.291V253.569C435.261 252.823 434.657 252.218 433.911 252.218Z" fill="white"/>
<path opacity="0.2" d="M434.047 253.244H426.386V263.726H434.047V253.244Z" fill="black"/>
<path d="M431.243 248.507H429.55V254.68H431.243V248.507Z" fill="#263238"/>
<path d="M290.544 514.481C292.25 513.687 294.088 513.217 295.965 513.096C295.965 513.096 302.463 509.282 308.892 494.422H316.126C317.352 494.431 318.546 494.818 319.544 495.532C320.542 496.245 321.295 497.249 321.7 498.407C321.821 498.724 321.89 499.059 321.906 499.398C321.82 501.147 321.631 502.888 321.341 504.614C320.283 510.395 318.872 516.105 317.118 521.714L315.886 521.406L318.109 510.599C318.862 506.94 314.997 510.479 313.219 514.173C311.44 517.866 308.687 521.611 300.684 519.782C291.365 517.49 287.62 516.156 290.544 514.481Z" fill="black"/>
<path d="M310.209 490.541C310.209 490.541 301.163 509.453 295.965 513.096C295.965 513.096 302.942 517.251 310.209 507.966C319.597 495.996 321.906 499.33 321.906 499.33C321.709 497.265 321.325 495.221 320.76 493.225C319.358 489.395 310.209 490.541 310.209 490.541Z" fill="#E4897B"/>
<path d="M390.1 559.539C391.578 558.374 393.251 557.483 395.042 556.906C395.042 556.906 400.446 551.656 403.165 535.702L410.193 533.992C411.386 533.717 412.634 533.816 413.769 534.275C414.904 534.734 415.87 535.53 416.537 536.557C416.729 536.841 416.879 537.152 416.981 537.48C417.323 539.174 417.558 540.887 417.683 542.61C418.011 548.455 417.983 554.314 417.597 560.155H416.332L415.938 549.142C415.785 545.398 412.895 549.758 412.023 553.777C411.15 557.795 409.389 562.053 401.181 562.173C391.622 562.275 387.655 561.865 390.1 559.539Z" fill="black"/>
<path d="M403.524 531.615C403.524 531.615 399.232 552.135 394.974 556.906C394.974 556.906 402.737 559.3 407.594 548.578C413.886 534.727 416.913 537.429 416.913 537.429C416.237 535.469 415.384 533.574 414.365 531.769C412.142 528.349 403.524 531.615 403.524 531.615Z" fill="#E4897B"/>
<path d="M562.52 117.727H502.824C498.035 117.727 494.154 121.608 494.154 126.396V151.927C494.154 156.715 498.035 160.596 502.824 160.596H562.52C567.308 160.596 571.189 156.715 571.189 151.927V126.396C571.189 121.608 567.308 117.727 562.52 117.727Z" fill="black"/>
<path d="M514.794 155.706L496.804 180.159L525.823 157.347L514.794 155.706Z" fill="black"/>
<path d="M515.46 139.153C515.464 139.655 515.318 140.147 515.041 140.565C514.764 140.984 514.369 141.311 513.906 141.505C513.443 141.698 512.933 141.75 512.44 141.653C511.948 141.556 511.495 141.314 511.14 140.959C510.785 140.605 510.544 140.152 510.447 139.66C510.35 139.167 510.401 138.657 510.595 138.194C510.788 137.73 511.115 137.335 511.534 137.059C511.953 136.782 512.445 136.636 512.947 136.639C513.613 136.639 514.253 136.904 514.724 137.375C515.196 137.847 515.46 138.486 515.46 139.153Z" fill="white"/>
<path d="M528.61 139.153C528.614 139.655 528.468 140.147 528.191 140.565C527.914 140.984 527.519 141.311 527.056 141.505C526.593 141.698 526.082 141.75 525.59 141.653C525.097 141.556 524.645 141.314 524.29 140.959C523.935 140.605 523.694 140.152 523.597 139.66C523.499 139.167 523.551 138.657 523.745 138.194C523.938 137.73 524.265 137.335 524.684 137.059C525.103 136.782 525.595 136.636 526.097 136.639C526.763 136.639 527.403 136.904 527.874 137.375C528.345 137.847 528.61 138.486 528.61 139.153Z" fill="white"/>
<path d="M541.76 139.153C541.764 139.655 541.618 140.147 541.341 140.565C541.064 140.984 540.669 141.311 540.206 141.505C539.743 141.698 539.232 141.75 538.74 141.653C538.247 141.556 537.795 141.314 537.44 140.959C537.085 140.605 536.844 140.152 536.746 139.66C536.649 139.167 536.701 138.657 536.895 138.194C537.088 137.73 537.415 137.335 537.834 137.059C538.253 136.782 538.744 136.636 539.246 136.639C539.913 136.639 540.553 136.904 541.024 137.375C541.495 137.847 541.76 138.486 541.76 139.153Z" fill="white"/>
<path d="M554.91 139.153C554.913 139.655 554.767 140.147 554.491 140.565C554.214 140.984 553.819 141.311 553.356 141.505C552.893 141.698 552.382 141.75 551.89 141.653C551.397 141.556 550.945 141.314 550.59 140.959C550.235 140.605 549.993 140.152 549.896 139.66C549.799 139.167 549.851 138.657 550.044 138.194C550.238 137.73 550.565 137.335 550.984 137.059C551.403 136.782 551.894 136.636 552.396 136.639C553.063 136.639 553.702 136.904 554.174 137.375C554.645 137.847 554.91 138.486 554.91 139.153Z" fill="white"/>
<path d="M338.362 97.5107L295.772 74.5688C294.624 73.9508 293.193 74.3799 292.575 75.5273L278.984 100.759C278.366 101.906 278.795 103.338 279.942 103.956L322.532 126.898C323.679 127.516 325.111 127.087 325.729 125.939L339.32 100.707C339.938 99.56 339.509 98.1288 338.362 97.5107Z" fill="black"/>
<path opacity="0.7" d="M338.362 97.5107L295.772 74.5688C294.624 73.9508 293.193 74.3799 292.575 75.5273L278.984 100.759C278.366 101.906 278.795 103.338 279.942 103.956L322.532 126.898C323.679 127.516 325.111 127.087 325.729 125.939L339.32 100.707C339.938 99.56 339.509 98.1288 338.362 97.5107Z" fill="white"/>
<path opacity="0.2" d="M291.468 77.6101L304.72 102.491C305.229 103.438 306.007 104.214 306.957 104.719C307.907 105.225 308.985 105.437 310.055 105.329L337.774 102.593L309.559 106.748C308.326 106.931 307.067 106.71 305.97 106.118C304.873 105.526 303.997 104.596 303.472 103.465L291.468 77.6101Z" fill="black"/>
<path d="M259.131 73.0101C259.593 63.5025 266.638 44.3334 275.205 38.4681C283.772 32.6028 278.129 40.7253 278.129 40.7253C278.129 40.7253 286.252 32.8251 290.527 33.0645C294.802 33.3039 290.527 38.1945 290.527 38.1945C290.527 38.1945 299.333 32.7738 303.386 33.0645C307.439 33.3552 303.386 38.0406 303.386 38.0406C303.386 38.0406 310.602 32.9106 313.526 35.3217C316.451 37.7328 276.095 64.3917 271.597 75.2331C267.1 86.0745 258.67 82.6032 259.131 73.0101Z" fill="black"/>
<path opacity="0.4" d="M259.131 73.0101C259.593 63.5025 266.638 44.3334 275.205 38.4681C283.772 32.6028 278.129 40.7253 278.129 40.7253C278.129 40.7253 286.252 32.8251 290.527 33.0645C294.802 33.3039 290.527 38.1945 290.527 38.1945C290.527 38.1945 299.333 32.7738 303.386 33.0645C307.439 33.3552 303.386 38.0406 303.386 38.0406C303.386 38.0406 310.602 32.9106 313.526 35.3217C316.451 37.7328 276.095 64.3917 271.597 75.2331C267.1 86.0745 258.67 82.6032 259.131 73.0101Z" fill="white"/>
<path d="M293.81 71.5737L299.197 74.9937C299.282 75.0464 299.346 75.1263 299.381 75.2204C299.415 75.3145 299.416 75.4173 299.384 75.5123C299.353 75.6072 299.29 75.6887 299.206 75.7436C299.122 75.7984 299.023 75.8234 298.923 75.8145L293.263 75.3699L293.742 79.7133C293.756 79.8157 293.736 79.9199 293.686 80.0103C293.636 80.1006 293.558 80.1723 293.463 80.2146C293.369 80.257 293.264 80.2677 293.163 80.2451C293.062 80.2226 292.971 80.168 292.904 80.0895L289.638 76.4301L293.81 71.5737Z" fill="black"/>
<path opacity="0.3" d="M293.81 71.5737L299.197 74.9937C299.282 75.0464 299.346 75.1263 299.381 75.2204C299.415 75.3145 299.416 75.4173 299.384 75.5123C299.353 75.6072 299.29 75.6887 299.206 75.7436C299.122 75.7984 299.023 75.8234 298.923 75.8145L293.263 75.3699L293.742 79.7133C293.756 79.8157 293.736 79.9199 293.686 80.0103C293.636 80.1006 293.558 80.1723 293.463 80.2146C293.369 80.257 293.264 80.2677 293.163 80.2451C293.062 80.2226 292.971 80.168 292.904 80.0895L289.638 76.4301L293.81 71.5737Z" fill="white"/>
<path d="M218.143 50.1645C218.143 50.1645 225.598 45.0345 236.867 48.3519C236.867 48.3519 240.099 63.246 248.974 68.205C253.847 70.9239 265.766 70.6845 275.205 67.6407C286.406 64.0155 291.878 64.0155 293.913 68.205C295.948 72.3945 293.69 76.755 285.123 78.7899C276.556 80.8248 269.733 95.7018 254.224 95.8899C238.714 96.078 230.472 80.4999 234.388 66.8199C230.68 59.8265 225.041 54.0454 218.143 50.1645Z" fill="black"/>
<path opacity="0.5" d="M218.143 50.1645C218.143 50.1645 225.598 45.0345 236.867 48.3519C236.867 48.3519 240.099 63.246 248.974 68.205C253.847 70.9239 265.766 70.6845 275.205 67.6407C286.406 64.0155 291.878 64.0155 293.913 68.205C295.948 72.3945 293.69 76.755 285.123 78.7899C276.556 80.8248 269.733 95.7018 254.224 95.8899C238.714 96.078 230.472 80.4999 234.388 66.8199C230.68 59.8265 225.041 54.0454 218.143 50.1645Z" fill="white"/>
<path d="M289.638 71.0266C289.638 71.1788 289.593 71.3276 289.508 71.4541C289.424 71.5806 289.303 71.6793 289.163 71.7375C289.022 71.7958 288.867 71.811 288.718 71.7813C288.569 71.7516 288.432 71.6783 288.324 71.5707C288.217 71.4631 288.143 71.326 288.114 71.1767C288.084 71.0274 288.099 70.8727 288.157 70.7321C288.216 70.5915 288.314 70.4713 288.441 70.3868C288.567 70.3022 288.716 70.2571 288.868 70.2571C289.072 70.2571 289.268 70.3382 289.412 70.4825C289.557 70.6268 289.638 70.8225 289.638 71.0266Z" fill="#263238"/>
<path d="M250.616 83.5437C241.433 86.0403 221.015 85.2537 212.807 78.9267C204.599 72.5997 214.039 75.5067 214.039 75.5067C214.039 75.5067 204.035 70.2227 202.924 66.0845C201.812 61.9463 207.848 64.4771 207.848 64.4771C207.848 64.4771 199.982 57.7911 198.956 53.8581C197.93 49.9251 203.676 52.319 203.676 52.319C203.676 52.319 196.511 47.0522 197.965 43.5125C199.418 39.9728 237.192 70.1372 248.871 71.0777C260.551 72.0182 259.918 81.0129 250.616 83.5437Z" fill="black"/>
<path opacity="0.4" d="M250.616 83.5437C241.433 86.0403 221.015 85.2537 212.807 78.9267C204.599 72.5997 214.039 75.5067 214.039 75.5067C214.039 75.5067 204.035 70.2227 202.924 66.0845C201.812 61.9463 207.848 64.4771 207.848 64.4771C207.848 64.4771 199.982 57.7911 198.956 53.8581C197.93 49.9251 203.676 52.319 203.676 52.319C203.676 52.319 196.511 47.0522 197.965 43.5125C199.418 39.9728 237.192 70.1372 248.871 71.0777C260.551 72.0182 259.918 81.0129 250.616 83.5437Z" fill="white"/>
<path d="M190.424 41.9394C190.356 41.9561 190.286 41.9561 190.218 41.9394C188.628 41.3751 187.004 40.845 185.362 40.3491C185.2 40.2979 185.064 40.1849 184.984 40.0346C184.904 39.8844 184.886 39.7087 184.934 39.5454C184.986 39.3831 185.099 39.2474 185.249 39.1674C185.399 39.0875 185.575 39.0697 185.738 39.1179C187.448 39.6138 189.038 40.161 190.646 40.8279C190.789 40.8768 190.91 40.9755 190.987 41.106C191.064 41.2365 191.091 41.3901 191.064 41.5391C191.037 41.6881 190.958 41.8224 190.84 41.9178C190.723 42.0133 190.575 42.0634 190.424 42.0591V41.9394Z" fill="black"/>
<path d="M87.0712 180.74C86.9018 180.74 86.7391 180.674 86.6177 180.556C86.4963 180.438 86.4259 180.277 86.4214 180.107C86.4214 179.938 86.4875 179.775 86.6057 179.654C86.7238 179.533 86.8848 179.462 87.0541 179.458C90.4559 179.409 93.8478 179.078 97.1944 178.466C97.362 178.436 97.5348 178.473 97.6755 178.568C97.8162 178.664 97.9137 178.812 97.9468 178.979C97.9641 179.062 97.9645 179.148 97.9478 179.231C97.9312 179.315 97.898 179.394 97.8501 179.464C97.8022 179.534 97.7407 179.594 97.6692 179.64C97.5976 179.686 97.5176 179.717 97.4338 179.731C94.014 180.357 90.5476 180.695 87.0712 180.74ZM76.8112 180.193C73.3606 179.825 69.9347 179.254 66.5512 178.483C66.3838 178.446 66.2376 178.344 66.1448 178.2C66.0519 178.056 66.0197 177.881 66.0553 177.713C66.096 177.549 66.1991 177.407 66.3428 177.318C66.4865 177.228 66.6595 177.199 66.8248 177.235C70.1548 177.985 73.5226 178.556 76.9138 178.945C77.0659 178.97 77.2042 179.048 77.304 179.165C77.4038 179.283 77.4586 179.432 77.4586 179.586C77.4586 179.74 77.4038 179.889 77.304 180.007C77.2042 180.124 77.0659 180.202 76.9138 180.227L76.8112 180.193ZM107.198 176.773C107.075 176.774 106.954 176.738 106.851 176.671C106.748 176.605 106.666 176.509 106.617 176.397C106.58 176.32 106.559 176.236 106.556 176.15C106.552 176.065 106.566 175.98 106.596 175.9C106.627 175.82 106.673 175.747 106.732 175.685C106.792 175.624 106.863 175.575 106.941 175.542C110.047 174.203 112.93 172.398 115.491 170.189C115.622 170.09 115.786 170.043 115.95 170.06C116.114 170.076 116.265 170.154 116.374 170.278C116.483 170.401 116.54 170.562 116.535 170.726C116.53 170.891 116.462 171.047 116.346 171.164C113.682 173.45 110.691 175.323 107.472 176.722C107.377 176.774 107.272 176.803 107.164 176.807L107.198 176.773ZM56.77 175.61C56.7026 175.627 56.6322 175.627 56.5648 175.61C53.3158 174.533 50.0497 173.267 46.8862 171.882C46.746 171.802 46.6407 171.673 46.5907 171.519C46.5407 171.366 46.5497 171.199 46.6159 171.052C46.682 170.905 46.8007 170.787 46.9486 170.723C47.0966 170.658 47.2633 170.651 47.4163 170.702C50.5285 172.07 53.7433 173.319 56.9752 174.396C57.1352 174.454 57.266 174.573 57.3396 174.726C57.4131 174.88 57.4235 175.056 57.3685 175.217C57.3202 175.335 57.2371 175.436 57.1303 175.506C57.0234 175.577 56.8978 175.613 56.77 175.61ZM37.96 167.3C37.8597 167.33 37.7526 167.33 37.6522 167.3C34.5913 165.59 31.6159 163.743 28.8457 161.81C28.7772 161.762 28.7189 161.701 28.6741 161.63C28.6293 161.559 28.5989 161.48 28.5846 161.398C28.5703 161.315 28.5724 161.231 28.5908 161.149C28.6092 161.067 28.6435 160.99 28.6918 160.921C28.7401 160.853 28.8014 160.794 28.8722 160.75C28.943 160.705 29.022 160.674 29.1045 160.66C29.1871 160.646 29.2717 160.648 29.3535 160.666C29.4352 160.685 29.5125 160.719 29.581 160.767C32.317 162.665 35.2411 164.495 38.2849 166.188C38.3586 166.229 38.4233 166.284 38.4754 166.35C38.5274 166.417 38.5657 166.493 38.588 166.574C38.6103 166.655 38.6162 166.74 38.6052 166.823C38.5943 166.907 38.5668 166.987 38.5243 167.06C38.452 167.171 38.3484 167.258 38.2266 167.31C38.1048 167.361 37.9703 167.376 37.8403 167.351L37.96 167.3ZM122.502 163.384C122.402 163.414 122.295 163.414 122.195 163.384C122.121 163.343 122.056 163.288 122.004 163.221C121.952 163.155 121.914 163.079 121.892 162.998C121.869 162.917 121.863 162.832 121.874 162.748C121.885 162.665 121.913 162.584 121.955 162.512C122.485 161.588 122.981 160.631 123.426 159.639C124.378 157.545 125.122 155.363 125.649 153.124C125.693 152.958 125.8 152.816 125.946 152.727C126.093 152.638 126.268 152.608 126.435 152.645C126.6 152.689 126.741 152.796 126.827 152.944C126.914 153.091 126.939 153.266 126.897 153.431C126.339 155.744 125.566 158 124.589 160.169C124.127 161.195 123.614 162.204 123.067 163.161C122.994 163.271 122.889 163.356 122.767 163.404C122.645 163.453 122.511 163.464 122.383 163.435L122.502 163.384ZM21.0994 155.483C20.9489 155.481 20.8039 155.427 20.689 155.33C18.0848 153.029 15.645 150.549 13.3873 147.908C13.2693 147.787 13.2032 147.624 13.2032 147.455C13.2032 147.286 13.2693 147.123 13.3873 147.002C13.5058 146.885 13.6655 146.819 13.8319 146.819C13.9984 146.819 14.1581 146.885 14.2765 147.002C16.4933 149.588 18.8874 152.016 21.4414 154.269C21.5595 154.391 21.6255 154.553 21.6255 154.723C21.6255 154.892 21.5595 155.054 21.4414 155.176C21.399 155.268 21.3349 155.349 21.2546 155.412C21.1742 155.474 21.0799 155.516 20.9797 155.535L21.0994 155.483ZM127.427 143.616C127.343 143.616 127.259 143.599 127.181 143.566C127.103 143.533 127.033 143.485 126.974 143.425C126.915 143.364 126.868 143.292 126.838 143.214C126.807 143.135 126.792 143.051 126.795 142.966C126.77 139.566 126.455 136.173 125.854 132.826C125.824 132.658 125.861 132.486 125.957 132.345C126.053 132.204 126.2 132.107 126.367 132.074C126.537 132.048 126.709 132.089 126.849 132.188C126.989 132.287 127.086 132.436 127.119 132.604C127.735 136.024 128.055 139.491 128.077 142.966C128.077 143.139 128.009 143.304 127.887 143.426C127.765 143.548 127.6 143.616 127.427 143.616ZM124.007 123.335C123.869 123.334 123.734 123.289 123.624 123.206C123.513 123.122 123.432 123.006 123.392 122.874C122.52 119.881 121.442 116.701 120.126 113.144C120.093 113.064 120.077 112.979 120.078 112.893C120.079 112.807 120.098 112.722 120.133 112.644C120.169 112.566 120.219 112.495 120.283 112.437C120.346 112.379 120.421 112.334 120.502 112.306C120.661 112.25 120.835 112.258 120.988 112.328C121.141 112.398 121.261 112.525 121.323 112.682C122.656 116.273 123.734 119.522 124.623 122.498C124.671 122.661 124.653 122.836 124.573 122.987C124.493 123.137 124.358 123.25 124.195 123.301L124.007 123.335ZM116.928 103.927C116.809 103.928 116.693 103.894 116.593 103.831C116.493 103.767 116.413 103.676 116.364 103.568C115.269 100.832 113.781 97.6854 112.225 94.3509V94.18C112.181 94.0309 112.191 93.8708 112.255 93.7288C112.318 93.5867 112.43 93.4722 112.571 93.4059C112.712 93.3397 112.872 93.3262 113.022 93.3678C113.172 93.4094 113.302 93.5034 113.388 93.6327V93.8038C114.961 97.2238 116.432 100.319 117.526 103.004C117.595 103.165 117.598 103.347 117.534 103.51C117.47 103.673 117.345 103.804 117.184 103.876L116.928 103.927ZM108.378 85.117C108.252 85.1209 108.128 85.0873 108.021 85.0202C107.915 84.9532 107.83 84.8559 107.779 84.7408C106.24 81.1669 105.009 78.0034 104.034 75.0793C103.979 74.9182 103.99 74.742 104.063 74.5885C104.137 74.435 104.268 74.3165 104.428 74.2584C104.591 74.2043 104.769 74.2171 104.923 74.294C105.077 74.3709 105.194 74.5057 105.249 74.6689C106.206 77.5588 107.42 80.6881 108.959 84.2278C108.993 84.3051 109.011 84.3884 109.011 84.4727C109.012 84.557 108.996 84.6406 108.965 84.7187C108.933 84.7967 108.886 84.8677 108.826 84.9272C108.766 84.9868 108.695 85.0339 108.617 85.0657C108.56 85.1263 108.49 85.1731 108.412 85.2025L108.378 85.117ZM102.119 65.5204C101.966 65.5183 101.819 65.4622 101.703 65.3621C101.587 65.262 101.511 65.1243 101.487 64.9732C101.193 63.1409 101.044 61.2884 101.042 59.4328C101.028 57.7749 101.177 56.1196 101.487 54.4909C101.536 54.3391 101.639 54.2109 101.777 54.1305C101.915 54.0501 102.077 54.0231 102.234 54.0548C102.39 54.0865 102.529 54.1746 102.625 54.3023C102.72 54.43 102.766 54.5884 102.752 54.7474C102.456 56.2913 102.313 57.8607 102.324 59.4328C102.33 61.2251 102.473 63.0145 102.752 64.7851C102.772 64.9519 102.729 65.1203 102.631 65.2566C102.533 65.393 102.387 65.4871 102.222 65.5204H102.119ZM106.582 46.0948C106.434 46.0988 106.288 46.0504 106.172 45.958C106.054 45.8366 105.988 45.6741 105.988 45.5048C105.988 45.3355 106.054 45.173 106.172 45.0517C108.468 42.3696 111.261 40.1573 114.397 38.5366C114.547 38.4568 114.722 38.439 114.885 38.4869C115.048 38.5349 115.186 38.6448 115.269 38.7931C115.343 38.9459 115.356 39.1213 115.305 39.2833C115.254 39.4454 115.144 39.582 114.996 39.6652C112.009 41.2097 109.349 43.3175 107.164 45.8725C107.107 45.9669 107.027 46.045 106.931 46.099C106.835 46.153 106.727 46.181 106.617 46.1803L106.582 46.0948ZM175.53 37.7158H175.393C172.11 37.0318 168.707 36.4504 165.27 36.0058C165.186 35.9953 165.106 35.9683 165.033 35.9263C164.96 35.8844 164.896 35.8283 164.845 35.7615C164.794 35.6946 164.757 35.6182 164.736 35.5369C164.715 35.4555 164.71 35.3708 164.722 35.2876C164.733 35.2042 164.76 35.1237 164.802 35.0508C164.844 34.978 164.9 34.9142 164.967 34.8633C165.033 34.8123 165.11 34.7752 165.191 34.7541C165.273 34.733 165.357 34.7283 165.441 34.7404C168.861 35.185 172.281 35.7664 175.701 36.4504C175.854 36.4857 175.989 36.5755 176.081 36.703C176.174 36.8306 176.216 36.9873 176.202 37.144C176.187 37.3007 176.116 37.4467 176.002 37.555C175.888 37.6633 175.738 37.7265 175.581 37.7329L175.53 37.7158ZM124.23 36.2623C124.146 36.2712 124.062 36.2638 123.982 36.2403C123.902 36.2168 123.827 36.1777 123.762 36.1253C123.697 36.0729 123.643 36.0082 123.603 35.9349C123.563 35.8616 123.537 35.781 123.528 35.698C123.519 35.6149 123.527 35.5308 123.55 35.4506C123.574 35.3704 123.613 35.2956 123.665 35.2305C123.718 35.1654 123.782 35.1113 123.856 35.0712C123.929 35.0311 124.01 35.0058 124.093 34.9969C127.47 34.2392 130.9 33.7419 134.353 33.5092C134.522 33.4997 134.689 33.5571 134.817 33.6689C134.945 33.7808 135.024 33.9383 135.037 34.1077C135.044 34.1921 135.034 34.2772 135.007 34.3577C134.981 34.4382 134.938 34.5126 134.882 34.5764C134.827 34.6402 134.758 34.6921 134.682 34.7291C134.606 34.7661 134.523 34.7874 134.438 34.7917C131.042 35.0112 127.669 35.4972 124.349 36.2452L124.23 36.2623ZM155.01 35.0653C152.034 34.8601 148.494 34.6378 144.75 34.5694C144.58 34.5649 144.419 34.4945 144.301 34.3731C144.183 34.2517 144.117 34.089 144.117 33.9196C144.117 33.835 144.134 33.7513 144.167 33.6734C144.199 33.5955 144.248 33.525 144.308 33.466C144.369 33.407 144.44 33.3608 144.519 33.33C144.598 33.2993 144.682 33.2846 144.767 33.2869C148.546 33.3724 152.12 33.5776 155.027 33.7828C155.111 33.787 155.194 33.8083 155.271 33.8453C155.347 33.8823 155.415 33.9342 155.471 33.998C155.527 34.0618 155.569 34.1362 155.595 34.2167C155.622 34.2972 155.632 34.3823 155.625 34.4668C155.638 34.6212 155.594 34.7749 155.503 34.9003C155.413 35.0258 155.28 35.1146 155.129 35.1508L155.01 35.0653Z" fill="black"/>
<path d="M7.79557 139.7C7.68089 139.702 7.56781 139.673 7.46841 139.616C7.36901 139.559 7.28704 139.475 7.23126 139.375C6.36648 137.874 5.59551 136.321 4.92276 134.724C4.88921 134.647 4.87144 134.563 4.87052 134.479C4.8696 134.395 4.88553 134.311 4.9174 134.233C4.94926 134.155 4.9964 134.084 5.05605 134.025C5.1157 133.965 5.18667 133.918 5.26477 133.886C5.42149 133.823 5.59662 133.823 5.75304 133.887C5.90946 133.951 6.03486 134.073 6.10266 134.228C6.76301 135.774 7.51092 137.282 8.34277 138.743C8.40666 138.838 8.44269 138.949 8.44682 139.063C8.45094 139.178 8.42299 139.291 8.3661 139.391C8.30922 139.491 8.22568 139.572 8.12487 139.627C8.02407 139.681 7.91002 139.707 7.79557 139.7Z" fill="black"/>
<path d="M215.475 274.858H150.564V288.162H215.475V274.858Z" fill="white"/>
<path opacity="0.1" d="M215.475 274.858H150.564V288.162H215.475V274.858Z" fill="black"/>
<path opacity="0.1" d="M177.906 274.858H150.564V288.162H177.906V274.858Z" fill="black"/>
<path opacity="0.1" d="M150.564 276.773H208.344L150.564 278.415V276.773Z" fill="black"/>
<path opacity="0.1" d="M215.475 279.082L165.389 280.33H215.475V279.082Z" fill="black"/>
<path opacity="0.1" d="M153.214 282.81L177.906 281.801L214.21 282.81L177.906 283.374L153.214 282.81Z" fill="black"/>
<path opacity="0.1" d="M150.564 285.631H193.348L150.564 286.64V285.631Z" fill="black"/>
<path opacity="0.1" d="M215.373 286.64L186.798 287.17H215.475L215.373 286.64Z" fill="black"/>
<path d="M206.446 261.554H141.535V274.858H206.446V261.554Z" fill="white"/>
<path opacity="0.1" d="M206.446 261.554H141.535V274.858H206.446V261.554Z" fill="black"/>
<path opacity="0.1" d="M168.878 261.554H141.535V274.858H168.878V261.554Z" fill="black"/>
<path opacity="0.1" d="M141.535 263.47H199.316L141.535 265.094V263.47Z" fill="black"/>
<path opacity="0.1" d="M206.446 265.778L156.36 267.027H206.446V265.778Z" fill="black"/>
<path opacity="0.1" d="M144.168 269.506L168.86 268.48L205.164 269.506L168.86 270.07L144.168 269.506Z" fill="black"/>
<path opacity="0.1" d="M141.535 272.31H184.319L141.535 273.336V272.31Z" fill="black"/>
<path opacity="0.1" d="M206.344 273.336L177.77 273.867H206.446L206.344 273.336Z" fill="black"/>
<path d="M213.851 248.234H148.939V261.537H213.851V248.234Z" fill="white"/>
<path opacity="0.1" d="M213.851 248.234H148.939V261.537H213.851V248.234Z" fill="black"/>
<path opacity="0.1" d="M176.282 248.234H148.939V261.537H176.282V248.234Z" fill="black"/>
<path opacity="0.1" d="M148.939 250.149H206.72L148.939 251.791V250.149Z" fill="black"/>
<path opacity="0.1" d="M213.851 252.457L163.765 253.706H213.851V252.457Z" fill="black"/>
<path opacity="0.1" d="M151.589 256.185L176.282 255.176L212.585 256.185L176.282 256.749L151.589 256.185Z" fill="black"/>
<path opacity="0.1" d="M148.939 259.007H191.723L148.939 260.015V259.007Z" fill="black"/>
<path opacity="0.1" d="M213.765 260.016L185.191 260.546H213.851L213.765 260.016Z" fill="black"/>
<path d="M257.097 287.889L258.772 281.51H328.13L360.056 284.708L361.27 287.889H257.097Z" fill="#263238"/>
<path opacity="0.4" d="M328.13 281.51V287.889H257.097L258.772 281.51H328.13Z" fill="black"/>
<path d="M314.193 250.987C314.286 251.76 314.213 252.544 313.977 253.287C313.742 254.029 313.35 254.712 312.828 255.291C312.306 255.869 311.667 256.329 310.953 256.64C310.238 256.95 309.466 257.104 308.687 257.091H202.462C200.801 257.055 199.21 256.416 197.986 255.292C196.762 254.169 195.988 252.639 195.81 250.987L189.5 182.98C189.432 182.316 189.478 181.645 189.637 180.996C189.932 179.802 190.624 178.744 191.599 177.995C192.575 177.246 193.777 176.851 195.006 176.875H301.3C302.961 176.911 304.552 177.551 305.776 178.674C307 179.798 307.774 181.328 307.952 182.98L314.193 250.987Z" fill="#263238"/>
<path opacity="0.4" d="M308.311 257.091H202.462C200.801 257.055 199.21 256.416 197.986 255.292C196.762 254.169 195.988 252.639 195.81 250.987L189.5 182.98C189.432 182.316 189.478 181.645 189.637 180.996H295.486C297.147 181.032 298.738 181.672 299.962 182.795C301.186 183.919 301.96 185.449 302.138 187.101L308.448 255.108C308.516 255.772 308.47 256.443 308.311 257.091Z" fill="black"/>
<path d="M235.328 215.385H257.302L251.454 278.295L286.201 283.511V287.889H213.013V283.511L228.009 278.295L235.328 215.385Z" fill="#263238"/>
<path opacity="0.1" d="M257.302 215.385L241.023 286.897L228.009 286.503L235.328 215.385H257.302Z" fill="white"/>
<path d="M257.199 562.19H246.734L227.907 300.132H241.809L257.199 562.19Z" fill="#263238"/>
<path opacity="0.4" d="M257.216 562.19H246.734L228.83 313.162L227.907 300.56H241.809L242.562 313.162L257.216 562.19Z" fill="white"/>
<path opacity="0.2" d="M242.562 312.53H228.83L227.907 300.56H241.809L242.562 312.53Z" fill="black"/>
<path d="M334.081 562.19H323.616L321.906 300.132H335.791L334.081 562.19Z" fill="#263238"/>
<path opacity="0.5" d="M335.808 300.56L335.534 342.848L334.098 562.19H323.616L322.179 342.848L321.906 300.56H335.808Z" fill="white"/>
<path opacity="0.2" d="M335.808 300.56L335.534 343.31H322.179L321.906 300.56H335.808Z" fill="black"/>
<path d="M445.299 562.19H434.834L416.007 300.132H429.909L445.299 562.19Z" fill="#263238"/>
<path opacity="0.5" d="M445.316 562.19H434.834L416.93 313.162L416.007 300.56H429.909L430.662 313.162L445.316 562.19Z" fill="white"/>
<path opacity="0.2" d="M430.662 312.53H416.93L416.007 300.56H429.909L430.662 312.53Z" fill="black"/>
<path d="M137.362 562.19H126.897L142.287 300.132H156.189L137.362 562.19Z" fill="#263238"/>
<path opacity="0.5" d="M156.189 300.56L155.266 313.162L137.362 562.19H126.897L141.535 313.162L142.287 300.56H156.189Z" fill="white"/>
<path opacity="0.2" d="M142.287 300.56H156.189L155.266 312.53H141.535L142.287 300.56Z" fill="black"/>
<path d="M131.275 293.6H440.922V303.022C440.922 303.507 440.826 303.987 440.64 304.435C440.455 304.884 440.183 305.291 439.84 305.634C439.497 305.977 439.09 306.249 438.641 306.434C438.193 306.62 437.713 306.716 437.228 306.716H134.968C133.989 306.716 133.049 306.326 132.357 305.634C131.664 304.941 131.275 304.002 131.275 303.022V293.6Z" fill="black"/>
<path opacity="0.6" d="M131.275 293.6H440.922V303.022C440.922 303.507 440.826 303.987 440.64 304.435C440.455 304.884 440.183 305.291 439.84 305.634C439.497 305.977 439.09 306.249 438.641 306.434C438.193 306.62 437.713 306.716 437.228 306.716H134.968C133.989 306.716 133.049 306.326 132.357 305.634C131.664 304.941 131.275 304.002 131.275 303.022V293.6Z" fill="white"/>
<path opacity="0.2" d="M440.922 293.583H131.275V300.149H440.922V293.583Z" fill="black"/>
<path d="M447.42 295.31H124.777C123.797 295.31 122.858 294.921 122.165 294.228C121.472 293.535 121.083 292.596 121.083 291.616C121.083 290.635 121.472 289.694 122.164 288.998C122.856 288.303 123.796 287.91 124.777 287.906H447.42C448.401 287.91 449.34 288.303 450.032 288.998C450.725 289.694 451.113 290.635 451.113 291.616C451.113 292.596 450.724 293.535 450.031 294.228C449.339 294.921 448.399 295.31 447.42 295.31Z" fill="black"/>
<path opacity="0.6" d="M447.42 295.31H124.777C123.797 295.31 122.858 294.921 122.165 294.228C121.472 293.535 121.083 292.596 121.083 291.616C121.083 290.635 121.472 289.694 122.164 288.998C122.856 288.303 123.796 287.91 124.777 287.906H447.42C448.401 287.91 449.34 288.303 450.032 288.998C450.725 289.694 451.113 290.635 451.113 291.616C451.113 292.596 450.724 293.535 450.031 294.228C449.339 294.921 448.399 295.31 447.42 295.31Z" fill="white"/>
<path d="M371.085 276.5L375.052 270.549C375.443 269.965 375.972 269.486 376.593 269.155C377.213 268.823 377.906 268.651 378.609 268.651H383.636C384.054 268.652 384.469 268.716 384.868 268.839L402.806 274.277C403.825 274.581 404.692 275.259 405.234 276.175L407.816 280.501L371.085 276.5Z" fill="black"/>
<path opacity="0.2" d="M407.816 280.501L381.67 277.663L371.051 276.5L375.018 270.549C375.409 269.965 375.938 269.486 376.559 269.155C377.179 268.823 377.872 268.651 378.575 268.651H383.602C384.025 268.654 384.446 268.717 384.851 268.839L385.244 268.959L402.771 274.277C403.797 274.579 404.67 275.257 405.217 276.175L407.816 280.501Z" fill="black"/>
<path opacity="0.2" d="M407.816 280.501L381.67 277.663L385.244 268.959L402.771 274.277C403.797 274.579 404.67 275.257 405.217 276.175L407.816 280.501Z" fill="black"/>
<path d="M420.231 287.324V287.889H364.792L366.844 279.869C367.225 278.396 368.085 277.091 369.29 276.162C370.495 275.233 371.975 274.732 373.496 274.739H398.086C398.903 274.735 399.715 274.88 400.48 275.166L403.558 276.312L415.767 280.86C417.085 281.349 418.221 282.231 419.019 283.388C419.818 284.544 420.241 285.919 420.231 287.324Z" fill="black"/>
<path opacity="0.2" d="M420.231 287.324V287.888H397.47L398.685 279.219C398.763 278.681 398.96 278.168 399.262 277.717C399.565 277.265 399.964 276.887 400.431 276.61C400.898 276.333 401.422 276.164 401.963 276.115C402.504 276.067 403.049 276.14 403.558 276.329L415.767 280.877C417.083 281.365 418.216 282.245 419.014 283.398C419.813 284.551 420.237 285.922 420.231 287.324Z" fill="black"/>
<path d="M401.01 282.006L408.261 260.272C408.331 260.05 408.45 259.847 408.607 259.676C408.765 259.505 408.958 259.371 409.174 259.283C409.389 259.195 409.621 259.155 409.853 259.167C410.085 259.178 410.312 259.24 410.518 259.349C410.833 259.529 411.083 259.806 411.23 260.138C411.378 260.47 411.416 260.84 411.339 261.195L405.234 284.383C405.234 284.383 401.181 286.025 401.01 282.006Z" fill="#263238"/>
<path opacity="0.2" d="M371.085 286.093H367.87L368.486 282.929H371.701L371.085 286.093Z" fill="black"/>
<path opacity="0.2" d="M375.873 285.973H372.658L373.274 282.81H376.489L375.873 285.973Z" fill="black"/>
</svg>
